#!OML:ASF H:\Punching\Project 1\Capture day 1\Session 1\female.ASF
:FULLY-SPECIFIED
:DEGREES
2490
root 2.822 15.6901 6.99384 15.8221 -13.5066 -3.48315
lowerback -4.18972 -0.579647 0.933087
upperback -7.11392 -0.813821 0.136135
thorax -5.02245 -0.465714 -0.377221
lowerneck -11.9878 -1.66807 5.31741
upperneck 31.2937 -3.1686 -2.54961
head 12.1479 -1.18478 -2.33694
rclavicle -1.76794e-014 -4.37326e-015
rhumerus -54.0201 -23.3913 -55.4815
rradius 25.7811
rwrist 17.6489
rhand 5.42289 -7.44812
rfingers 7.12502
rthumb 30.7733 -34.8926
lclavicle -1.76794e-014 -4.37326e-015
lhumerus -59.3221 24.9932 60.4308
lradius 33.7357
lwrist 1.03941
lhand -10.308 20.6669
lfingers 7.12502
lthumb 15.687 50.051
rfemur -20.1298 13.8522 14.4184
rtibia 23.8976
rfoot -15.2705 -18.3081
rtoes -5.57142
lfemur -15.1562 -9.59126 -17.2799
ltibia 25.3431
lfoot -24.0971 25.4338
ltoes 5.00632
2491
root 2.80072 15.6886 6.99857 15.7215 -13.541 -3.54292
lowerback -4.29588 -0.587763 1.07484
upperback -7.16121 -0.826014 0.178408
thorax -5.01455 -0.478302 -0.413544
lowerneck -11.8965 -1.76637 5.19718
upperneck 31.33 -3.26102 -2.60574
head 12.1387 -1.24809 -2.34876
rclavicle 4.21051e-014 -4.77083e-015
rhumerus -53.6709 -23.2136 -55.9154
rradius 25.8853
rwrist 17.438
rhand 5.08962 -7.38387
rfingers 7.12502
rthumb 30.4554 -34.8877
lclavicle 4.21051e-014 -4.77083e-015
lhumerus -59.5163 25.2296 60.7772
lradius 33.198
lwrist 0.57024
lhand -10.2297 20.6796
lfingers 7.12502
lthumb 15.7624 50.0578
rfemur -19.9885 13.7379 14.6219
rtibia 23.9288
rfoot -15.3104 -18.1315
rtoes -5.55449
lfemur -14.9742 -9.77269 -17.1766
ltibia 25.3618
lfoot -24.2295 25.6732
ltoes 5.07602
2492
root 2.77908 15.6873 7.00338 15.6344 -13.5451 -3.59858
lowerback -4.41861 -0.603404 1.2118
upperback -7.21351 -0.848577 0.225799
thorax -5.00276 -0.495739 -0.442052
lowerneck -11.8151 -1.87073 5.05491
upperneck 31.3807 -3.36378 -2.64368
head 12.138 -1.316 -2.35183
rclavicle -2.05494e-014 -9.54166e-015
rhumerus -53.3003 -22.9556 -56.3843
rradius 26.0349
rwrist 17.0914
rhand 4.62032 -7.29011
rfingers 7.12502
rthumb 30.0078 -34.876
lclavicle -2.05494e-014 -9.54166e-015
lhumerus -59.6805 25.3962 61.0684
lradius 32.6497
lwrist -0.333192
lhand -10.004 20.5553
lfingers 7.12502
lthumb 15.9798 49.9162
rfemur -19.8507 13.6108 14.8247
rtibia 23.9478
rfoot -15.3432 -17.9756
rtoes -5.53165
lfemur -14.8219 -9.945 -17.0698
ltibia 25.3916
lfoot -24.3452 25.8888
ltoes 5.11734
2493
root 2.75694 15.6865 7.00802 15.5583 -13.5198 -3.64576
lowerback -4.54632 -0.624671 1.33782
upperback -7.27365 -0.87888 0.274505
thorax -4.99657 -0.516559 -0.46312
lowerneck -11.7521 -1.98188 4.89675
upperneck 31.4564 -3.47942 -2.66608
head 12.1516 -1.38905 -2.34907
rclavicle 1.20513e-014 -1.27222e-014
rhumerus -52.9199 -22.6284 -56.8788
rradius 26.2292
rwrist 16.6396
rhand 4.035 -7.14849
rfingers 7.12502
rthumb 29.4491 -34.8341
lclavicle 1.20513e-014 -1.27222e-014
lhumerus -59.8143 25.4917 61.2926
lradius 32.105
lwrist -1.60852
lhand -9.62689 20.324
lfingers 7.12502
lthumb 16.3429 49.6554
rfemur -19.7179 13.4842 15.0211
rtibia 23.9583
rfoot -15.3672 -17.8552
rtoes -5.50999
lfemur -14.6964 -10.1153 -16.9621
ltibia 25.4259
lfoot -24.4383 26.0882
ltoes 5.12263
2494
root 2.73418 15.6861 7.01246 15.4889 -13.4692 -3.68316
lowerback -4.68277 -0.649413 1.44963
upperback -7.33242 -0.914118 0.322224
thorax -4.98402 -0.539124 -0.477477
lowerneck -11.7196 -2.10006 4.72674
upperneck 31.5566 -3.60931 -2.67463
head 12.1818 -1.46752 -2.34234
rclavicle -1.74185e-014 -1.35174e-014
rhumerus -52.527 -22.2588 -57.3869
rradius 26.4639
rwrist 16.1218
rhand 3.33858 -6.96892
rfingers 7.12502
rthumb 28.784 -34.7696
lclavicle -1.74185e-014 -1.35174e-014
lhumerus -59.9075 25.5328 61.4415
lradius 31.585
lwrist -3.15242
lhand -9.12714 20.0002
lfingers 7.12502
lthumb 16.824 49.2913
rfemur -19.589 13.3714 15.2087
rtibia 23.9644
rfoot -15.3875 -17.778
rtoes -5.48566
lfemur -14.5889 -10.2821 -16.8558
ltibia 25.4583
lfoot -24.5108 26.2689
ltoes 5.10419
2495
root 2.71085 15.6861 7.01678 15.4199 -13.3939 -3.70352
lowerback -4.81465 -0.683571 1.53361
upperback -7.39737 -0.961534 0.375451
thorax -4.98037 -0.566292 -0.470556
lowerneck -11.7017 -2.22009 4.5376
upperneck 31.6813 -3.74155 -2.67452
head 12.226 -1.54774 -2.3305
rclavicle -5.09386e-015 5.1684e-015
rhumerus -52.1265 -21.813 -57.9105
rradius 26.7435
rwrist 15.5402
rhand 2.56674 -6.73721
rfingers 7.12502
rthumb 28.0465 -34.661
lclavicle -5.09386e-015 5.1684e-015
lhumerus -59.9852 25.533 61.5136
lradius 31.1205
lwrist -4.82124
lhand -8.56089 19.6349
lfingers 7.12502
lthumb 17.3691 48.8788
rfemur -19.4579 13.2709 15.3808
rtibia 23.9688
rfoot -15.4085 -17.7425
rtoes -5.454
lfemur -14.492 -10.4504 -16.7585
ltibia 25.4846
lfoot -24.5664 26.4298
ltoes 5.07772
2496
root 2.68693 15.6867 7.02082 15.3478 -13.3003 -3.70927
lowerback -4.93483 -0.721561 1.59194
upperback -7.46675 -1.01354 0.430112
thorax -4.98767 -0.594474 -0.447706
lowerneck -11.7011 -2.34555 4.33765
upperneck 31.8283 -3.88251 -2.66873
head 12.2835 -1.63199 -2.31701
rclavicle -4.16454e-014 -2.38542e-015
rhumerus -51.7317 -21.3217 -58.4327
rradius 27.0707
rwrist 14.9309
rhand 1.72207 -6.47275
rfingers 7.12502
rthumb 27.2388 -34.5259
lclavicle -4.16454e-014 -2.38542e-015
lhumerus -60.0334 25.4826 61.5306
lradius 30.7412
lwrist -6.46373
lhand -7.99119 19.2776
lfingers 7.12502
lthumb 17.9173 48.4722
rfemur -19.323 13.1897 15.5394
rtibia 23.9744
rfoot -15.4337 -17.748
rtoes -5.4273
lfemur -14.3988 -10.6138 -16.6688
ltibia 25.5015
lfoot -24.6132 26.5642
ltoes 5.06719
2497
root 2.66259 15.6875 7.02459 15.2706 -13.1906 -3.70372
lowerback -5.04408 -0.761009 1.63048
upperback -7.53705 -1.06698 0.485603
thorax -5.00174 -0.62234 -0.412852
lowerneck -11.7151 -2.47709 4.12692
upperneck 31.9912 -4.0326 -2.6575
head 12.3512 -1.7206 -2.30181
rclavicle 2.20403e-014 1.43125e-014
rhumerus -51.3438 -20.7899 -58.9513
rradius 27.4463
rwrist 14.2979
rhand 0.824032 -6.20228
rfingers 7.12502
rthumb 26.3794 -34.3872
lclavicle 2.20403e-014 1.43125e-014
lhumerus -60.0371 25.375 61.5237
lradius 30.4645
lwrist -7.94782
lhand -7.47749 18.9877
lfingers 7.12502
lthumb 18.4115 48.1364
rfemur -19.1819 13.1305 15.6865
rtibia 23.983
rfoot -15.4694 -17.789
rtoes -5.37225
lfemur -14.3047 -10.7711 -16.5843
ltibia 25.5083
lfoot -24.6537 26.67
ltoes 5.07133
2498
root 2.63808 15.6882 7.02821 15.187 -13.067 -3.68981
lowerback -5.13937 -0.803951 1.65228
upperback -7.61016 -1.12439 0.544696
thorax -5.02631 -0.651256 -0.364734
lowerneck -11.7358 -2.6122 3.90968
upperneck 32.165 -4.18643 -2.64816
head 12.4255 -1.81175 -2.28741
rclavicle 2.08475e-014 -5.56597e-015
rhumerus -50.9662 -20.2249 -59.4538
rradius 27.8627
rwrist 13.6526
rhand -0.114313 -5.92162
rfingers 7.12502
rthumb 25.4809 -34.2381
lclavicle 2.08475e-014 -5.56597e-015
lhumerus -59.999 25.2128 61.5119
lradius 30.2962
lwrist -9.17958
lhand -7.07392 18.8025
lfingers 7.12502
lthumb 18.7997 47.9141
rfemur -19.0319 13.081 15.8261
rtibia 23.9961
rfoot -15.5219 -17.8504
rtoes -5.29825
lfemur -14.2063 -10.918 -16.5045
ltibia 25.5058
lfoot -24.6888 26.7464
ltoes 5.09038
2499
root 2.61359 15.6886 7.03162 15.0986 -12.9308 -3.67501
lowerback -5.22623 -0.844891 1.67147
upperback -7.67949 -1.17892 0.602019
thorax -5.0515 -0.678573 -0.316931
lowerneck -11.763 -2.75358 3.69575
upperneck 32.337 -4.34981 -2.64093
head 12.5007 -1.90708 -2.27597
rclavicle -5.0541e-014 -2.38542e-015
rhumerus -50.5999 -19.6587 -59.9348
rradius 28.3147
rwrist 13.0022
rhand -1.09276 -5.62544
rfingers 7.12502
rthumb 24.5433 -34.0724
lclavicle -5.0541e-014 -2.38542e-015
lhumerus -59.8942 24.9881 61.519
lradius 30.2332
lwrist -10.1066
lhand -6.81885 18.7307
lfingers 7.12502
lthumb 19.045 47.8183
rfemur -18.8743 13.0425 15.9647
rtibia 24.014
rfoot -15.5891 -17.9285
rtoes -5.19234
lfemur -14.1032 -11.0601 -16.4228
ltibia 25.4966
lfoot -24.7186 26.8033
ltoes 5.1085
2500
root 2.58939 15.6885 7.03499 15.0063 -12.7843 -3.66247
lowerback -5.30489 -0.886106 1.69042
upperback -7.74903 -1.23346 0.662914
thorax -5.08144 -0.705765 -0.26517
lowerneck -11.7797 -2.89971 3.47816
upperneck 32.4999 -4.51706 -2.63838
head 12.5706 -2.00547 -2.26585
rclavicle 2.40032e-014 -7.15625e-015
rhumerus -50.2456 -19.0792 -60.3911
rradius 28.8026
rwrist 12.3487
rhand -2.08045 -5.37843
rfingers 7.12502
rthumb 23.5962 -33.9507
lclavicle 2.40032e-014 -7.15625e-015
lhumerus -59.7415 24.7163 61.5403
lradius 30.255
lwrist -10.7361
lhand -6.72531 18.7373
lfingers 7.12502
lthumb 19.135 47.816
rfemur -18.7096 13.0029 16.1056
rtibia 24.0359
rfoot -15.6716 -18.0103
rtoes -5.06418
lfemur -13.9949 -11.1962 -16.3392
ltibia 25.4843
lfoot -24.7452 26.8455
ltoes 5.11754
2501
root 2.56565 15.6877 7.03828 14.9139 -12.6289 -3.65437
lowerback -5.37701 -0.925721 1.71393
upperback -7.81971 -1.28567 0.725629
thorax -5.1163 -0.731979 -0.213932
lowerneck -11.7851 -3.05029 3.26267
upperneck 32.6496 -4.68821 -2.64315
head 12.6328 -2.10665 -2.25886
rclavicle 8.92046e-015 -1.03368e-014
rhumerus -49.9048 -18.512 -60.8087
rradius 29.3122
rwrist 11.7089
rhand -3.06792 -5.1476
rfingers 7.12502
rthumb 22.6488 -33.8387
lclavicle 8.92046e-015 -1.03368e-014
lhumerus -59.5359 24.3979 61.5809
lradius 30.344
lwrist -11.0872
lhand -6.78641 18.7939
lfingers 7.12502
lthumb 19.0762 47.8784
rfemur -18.5427 12.9579 16.2499
rtibia 24.0598
rfoot -15.762 -18.0908
rtoes -4.92052
lfemur -13.8863 -11.3379 -16.2518
ltibia 25.4726
lfoot -24.7704 26.8875
ltoes 5.11048
2502
root 2.54248 15.6863 7.04158 14.8233 -12.4658 -3.65514
lowerback -5.44455 -0.962578 1.74794
upperback -7.89079 -1.33419 0.789685
thorax -5.15434 -0.756858 -0.167035
lowerneck -11.7749 -3.20607 3.04938
upperneck 32.7794 -4.86484 -2.65287
head 12.6837 -2.21114 -2.25393
rclavicle -7.28049e-015 8.54774e-015
rhumerus -49.5753 -17.9655 -61.1879
rradius 29.8374
rwrist 11.0825
rhand -4.05389 -4.93964
rfingers 7.12502
rthumb 21.7022 -33.7432
lclavicle -7.28049e-015 8.54774e-015
lhumerus -59.2846 24.0455 61.6283
lradius 30.4894
lwrist -11.224
lhand -6.94702 18.8718
lfingers 7.12502
lthumb 18.9218 47.9714
rfemur -18.375 12.9017 16.4028
rtibia 24.0839
rfoot -15.8591 -18.1628
rtoes -4.78073
lfemur -13.7786 -11.4884 -16.1571
ltibia 25.4641
lfoot -24.7974 26.9363
ltoes 5.09071
